<svg width="1084" height="180" viewBox="0 0 1084 180" fill="none" xmlns="http://www.w3.org/2000/svg">
    <g filter="url(#filter0_d_181_2009)">
        <mask id="path-1-outside-1_181_2009" maskUnits="userSpaceOnUse" x="32" y="31" width="1021" height="117"
            fill="black">
            <rect fill="white" x="32" y="31" width="1021" height="117" />
            <path
                d="M95.9492 84.1133V60.5293H60.5732V84.1133H95.9492ZM60.5732 143H37.0625V36.9453H107.668V48.7373H119.46V95.832H107.668V107.624H60.5732V143ZM209.182 143H150.295V131.208H138.503V48.7373H150.295V36.9453H209.182V60.5293H162.087V84.1133H197.39V95.832H162.087V119.416H209.182V143ZM286.965 84.1133V60.5293H251.589V84.1133H286.965ZM251.589 143H228.078V36.9453H298.684V48.7373H310.476V95.832H298.684V107.624H251.589V143ZM400.197 143H341.311V131.208H329.519V48.7373H341.311V36.9453H400.197V60.5293H353.103V84.1133H388.405V95.832H353.103V119.416H400.197V143ZM562.282 143H538.698V72.3213H526.979V84.1133H515.188V95.832H503.396V84.1133H491.604V72.3213H479.812V143H456.301V36.9453H479.812V48.7373H491.604V60.5293H503.396V72.3213H515.188V60.5293H526.979V48.7373H538.698V36.9453H562.282V143ZM630.837 143H582.204V131.208H594.729V48.7373H582.204V36.9453H630.837V48.7373H618.312V131.208H630.837V143ZM745.388 143H721.804V107.624H710.012V95.832H698.22V84.1133H686.501V72.3213H674.709V143H651.125V36.9453H686.501V48.7373H698.22V60.5293H710.012V72.3213H721.804V36.9453H745.388V143ZM840.969 143H782.082V131.208H770.29V48.7373H782.082V36.9453H840.969V60.5293H793.874V84.1133H829.177V95.832H793.874V119.416H840.969V143ZM918.752 84.1133V60.5293H883.449V84.1133H918.752ZM942.336 143H918.752V131.208H907.546V119.416H895.754V107.624H883.449V143H859.865V36.9453H930.544V48.7373H942.336V84.1133H930.544V95.832H918.752V107.624H930.544V119.416H942.336V143ZM1035.43 143H976.54V131.208H964.748V107.624H988.332V119.416H1023.63V107.624H1000.05V95.832H976.54V84.1133H964.748V48.7373H976.54V36.9453H1035.43V48.7373H1047.22V72.3213H1023.63V60.5293H988.332V72.3213H1011.84V84.1133H1035.43V95.832H1047.22V131.208H1035.43V143Z" />
        </mask>
        <path
            d="M95.9492 84.1133V60.5293H60.5732V84.1133H95.9492ZM60.5732 143H37.0625V36.9453H107.668V48.7373H119.46V95.832H107.668V107.624H60.5732V143ZM209.182 143H150.295V131.208H138.503V48.7373H150.295V36.9453H209.182V60.5293H162.087V84.1133H197.39V95.832H162.087V119.416H209.182V143ZM286.965 84.1133V60.5293H251.589V84.1133H286.965ZM251.589 143H228.078V36.9453H298.684V48.7373H310.476V95.832H298.684V107.624H251.589V143ZM400.197 143H341.311V131.208H329.519V48.7373H341.311V36.9453H400.197V60.5293H353.103V84.1133H388.405V95.832H353.103V119.416H400.197V143ZM562.282 143H538.698V72.3213H526.979V84.1133H515.188V95.832H503.396V84.1133H491.604V72.3213H479.812V143H456.301V36.9453H479.812V48.7373H491.604V60.5293H503.396V72.3213H515.188V60.5293H526.979V48.7373H538.698V36.9453H562.282V143ZM630.837 143H582.204V131.208H594.729V48.7373H582.204V36.9453H630.837V48.7373H618.312V131.208H630.837V143ZM745.388 143H721.804V107.624H710.012V95.832H698.22V84.1133H686.501V72.3213H674.709V143H651.125V36.9453H686.501V48.7373H698.22V60.5293H710.012V72.3213H721.804V36.9453H745.388V143ZM840.969 143H782.082V131.208H770.29V48.7373H782.082V36.9453H840.969V60.5293H793.874V84.1133H829.177V95.832H793.874V119.416H840.969V143ZM918.752 84.1133V60.5293H883.449V84.1133H918.752ZM942.336 143H918.752V131.208H907.546V119.416H895.754V107.624H883.449V143H859.865V36.9453H930.544V48.7373H942.336V84.1133H930.544V95.832H918.752V107.624H930.544V119.416H942.336V143ZM1035.43 143H976.54V131.208H964.748V107.624H988.332V119.416H1023.63V107.624H1000.05V95.832H976.54V84.1133H964.748V48.7373H976.54V36.9453H1035.43V48.7373H1047.22V72.3213H1023.63V60.5293H988.332V72.3213H1011.84V84.1133H1035.43V95.832H1047.22V131.208H1035.43V143Z"
            fill="url(#paint0_linear_181_2009)" />
        <path
            d="M95.9492 84.1133V89.1133H100.949V84.1133H95.9492ZM95.9492 60.5293H100.949V55.5293H95.9492V60.5293ZM60.5732 60.5293V55.5293H55.5732V60.5293H60.5732ZM60.5732 84.1133H55.5732V89.1133H60.5732V84.1133ZM60.5732 143V148H65.5732V143H60.5732ZM37.0625 143H32.0625V148H37.0625V143ZM37.0625 36.9453V31.9453H32.0625V36.9453H37.0625ZM107.668 36.9453H112.668V31.9453H107.668V36.9453ZM107.668 48.7373H102.668V53.7373H107.668V48.7373ZM119.46 48.7373H124.46V43.7373H119.46V48.7373ZM119.46 95.832V100.832H124.46V95.832H119.46ZM107.668 95.832V90.832H102.668V95.832H107.668ZM107.668 107.624V112.624H112.668V107.624H107.668ZM60.5732 107.624V102.624H55.5732V107.624H60.5732ZM100.949 84.1133V60.5293H90.9492V84.1133H100.949ZM95.9492 55.5293H60.5732V65.5293H95.9492V55.5293ZM55.5732 60.5293V84.1133H65.5732V60.5293H55.5732ZM60.5732 89.1133H95.9492V79.1133H60.5732V89.1133ZM60.5732 138H37.0625V148H60.5732V138ZM42.0625 143V36.9453H32.0625V143H42.0625ZM37.0625 41.9453H107.668V31.9453H37.0625V41.9453ZM102.668 36.9453V48.7373H112.668V36.9453H102.668ZM107.668 53.7373H119.46V43.7373H107.668V53.7373ZM114.46 48.7373V95.832H124.46V48.7373H114.46ZM119.46 90.832H107.668V100.832H119.46V90.832ZM102.668 95.832V107.624H112.668V95.832H102.668ZM107.668 102.624H60.5732V112.624H107.668V102.624ZM55.5732 107.624V143H65.5732V107.624H55.5732ZM209.182 143V148H214.182V143H209.182ZM150.295 143H145.295V148H150.295V143ZM150.295 131.208H155.295V126.208H150.295V131.208ZM138.503 131.208H133.503V136.208H138.503V131.208ZM138.503 48.7373V43.7373H133.503V48.7373H138.503ZM150.295 48.7373V53.7373H155.295V48.7373H150.295ZM150.295 36.9453V31.9453H145.295V36.9453H150.295ZM209.182 36.9453H214.182V31.9453H209.182V36.9453ZM209.182 60.5293V65.5293H214.182V60.5293H209.182ZM162.087 60.5293V55.5293H157.087V60.5293H162.087ZM162.087 84.1133H157.087V89.1133H162.087V84.1133ZM197.39 84.1133H202.39V79.1133H197.39V84.1133ZM197.39 95.832V100.832H202.39V95.832H197.39ZM162.087 95.832V90.832H157.087V95.832H162.087ZM162.087 119.416H157.087V124.416H162.087V119.416ZM209.182 119.416H214.182V114.416H209.182V119.416ZM209.182 138H150.295V148H209.182V138ZM155.295 143V131.208H145.295V143H155.295ZM150.295 126.208H138.503V136.208H150.295V126.208ZM143.503 131.208V48.7373H133.503V131.208H143.503ZM138.503 53.7373H150.295V43.7373H138.503V53.7373ZM155.295 48.7373V36.9453H145.295V48.7373H155.295ZM150.295 41.9453H209.182V31.9453H150.295V41.9453ZM204.182 36.9453V60.5293H214.182V36.9453H204.182ZM209.182 55.5293H162.087V65.5293H209.182V55.5293ZM157.087 60.5293V84.1133H167.087V60.5293H157.087ZM162.087 89.1133H197.39V79.1133H162.087V89.1133ZM192.39 84.1133V95.832H202.39V84.1133H192.39ZM197.39 90.832H162.087V100.832H197.39V90.832ZM157.087 95.832V119.416H167.087V95.832H157.087ZM162.087 124.416H209.182V114.416H162.087V124.416ZM204.182 119.416V143H214.182V119.416H204.182ZM286.965 84.1133V89.1133H291.965V84.1133H286.965ZM286.965 60.5293H291.965V55.5293H286.965V60.5293ZM251.589 60.5293V55.5293H246.589V60.5293H251.589ZM251.589 84.1133H246.589V89.1133H251.589V84.1133ZM251.589 143V148H256.589V143H251.589ZM228.078 143H223.078V148H228.078V143ZM228.078 36.9453V31.9453H223.078V36.9453H228.078ZM298.684 36.9453H303.684V31.9453H298.684V36.9453ZM298.684 48.7373H293.684V53.7373H298.684V48.7373ZM310.476 48.7373H315.476V43.7373H310.476V48.7373ZM310.476 95.832V100.832H315.476V95.832H310.476ZM298.684 95.832V90.832H293.684V95.832H298.684ZM298.684 107.624V112.624H303.684V107.624H298.684ZM251.589 107.624V102.624H246.589V107.624H251.589ZM291.965 84.1133V60.5293H281.965V84.1133H291.965ZM286.965 55.5293H251.589V65.5293H286.965V55.5293ZM246.589 60.5293V84.1133H256.589V60.5293H246.589ZM251.589 89.1133H286.965V79.1133H251.589V89.1133ZM251.589 138H228.078V148H251.589V138ZM233.078 143V36.9453H223.078V143H233.078ZM228.078 41.9453H298.684V31.9453H228.078V41.9453ZM293.684 36.9453V48.7373H303.684V36.9453H293.684ZM298.684 53.7373H310.476V43.7373H298.684V53.7373ZM305.476 48.7373V95.832H315.476V48.7373H305.476ZM310.476 90.832H298.684V100.832H310.476V90.832ZM293.684 95.832V107.624H303.684V95.832H293.684ZM298.684 102.624H251.589V112.624H298.684V102.624ZM246.589 107.624V143H256.589V107.624H246.589ZM400.197 143V148H405.197V143H400.197ZM341.311 143H336.311V148H341.311V143ZM341.311 131.208H346.311V126.208H341.311V131.208ZM329.519 131.208H324.519V136.208H329.519V131.208ZM329.519 48.7373V43.7373H324.519V48.7373H329.519ZM341.311 48.7373V53.7373H346.311V48.7373H341.311ZM341.311 36.9453V31.9453H336.311V36.9453H341.311ZM400.197 36.9453H405.197V31.9453H400.197V36.9453ZM400.197 60.5293V65.5293H405.197V60.5293H400.197ZM353.103 60.5293V55.5293H348.103V60.5293H353.103ZM353.103 84.1133H348.103V89.1133H353.103V84.1133ZM388.405 84.1133H393.405V79.1133H388.405V84.1133ZM388.405 95.832V100.832H393.405V95.832H388.405ZM353.103 95.832V90.832H348.103V95.832H353.103ZM353.103 119.416H348.103V124.416H353.103V119.416ZM400.197 119.416H405.197V114.416H400.197V119.416ZM400.197 138H341.311V148H400.197V138ZM346.311 143V131.208H336.311V143H346.311ZM341.311 126.208H329.519V136.208H341.311V126.208ZM334.519 131.208V48.7373H324.519V131.208H334.519ZM329.519 53.7373H341.311V43.7373H329.519V53.7373ZM346.311 48.7373V36.9453H336.311V48.7373H346.311ZM341.311 41.9453H400.197V31.9453H341.311V41.9453ZM395.197 36.9453V60.5293H405.197V36.9453H395.197ZM400.197 55.5293H353.103V65.5293H400.197V55.5293ZM348.103 60.5293V84.1133H358.103V60.5293H348.103ZM353.103 89.1133H388.405V79.1133H353.103V89.1133ZM383.405 84.1133V95.832H393.405V84.1133H383.405ZM388.405 90.832H353.103V100.832H388.405V90.832ZM348.103 95.832V119.416H358.103V95.832H348.103ZM353.103 124.416H400.197V114.416H353.103V124.416ZM395.197 119.416V143H405.197V119.416H395.197ZM562.282 143V148H567.282V143H562.282ZM538.698 143H533.698V148H538.698V143ZM538.698 72.3213H543.698V67.3213H538.698V72.3213ZM526.979 72.3213V67.3213H521.979V72.3213H526.979ZM526.979 84.1133V89.1133H531.979V84.1133H526.979ZM515.188 84.1133V79.1133H510.188V84.1133H515.188ZM515.188 95.832V100.832H520.188V95.832H515.188ZM503.396 95.832H498.396V100.832H503.396V95.832ZM503.396 84.1133H508.396V79.1133H503.396V84.1133ZM491.604 84.1133H486.604V89.1133H491.604V84.1133ZM491.604 72.3213H496.604V67.3213H491.604V72.3213ZM479.812 72.3213V67.3213H474.812V72.3213H479.812ZM479.812 143V148H484.812V143H479.812ZM456.301 143H451.301V148H456.301V143ZM456.301 36.9453V31.9453H451.301V36.9453H456.301ZM479.812 36.9453H484.812V31.9453H479.812V36.9453ZM479.812 48.7373H474.812V53.7373H479.812V48.7373ZM491.604 48.7373H496.604V43.7373H491.604V48.7373ZM491.604 60.5293H486.604V65.5293H491.604V60.5293ZM503.396 60.5293H508.396V55.5293H503.396V60.5293ZM503.396 72.3213H498.396V77.3213H503.396V72.3213ZM515.188 72.3213V77.3213H520.188V72.3213H515.188ZM515.188 60.5293V55.5293H510.188V60.5293H515.188ZM526.979 60.5293V65.5293H531.979V60.5293H526.979ZM526.979 48.7373V43.7373H521.979V48.7373H526.979ZM538.698 48.7373V53.7373H543.698V48.7373H538.698ZM538.698 36.9453V31.9453H533.698V36.9453H538.698ZM562.282 36.9453H567.282V31.9453H562.282V36.9453ZM562.282 138H538.698V148H562.282V138ZM543.698 143V72.3213H533.698V143H543.698ZM538.698 67.3213H526.979V77.3213H538.698V67.3213ZM521.979 72.3213V84.1133H531.979V72.3213H521.979ZM526.979 79.1133H515.188V89.1133H526.979V79.1133ZM510.188 84.1133V95.832H520.188V84.1133H510.188ZM515.188 90.832H503.396V100.832H515.188V90.832ZM508.396 95.832V84.1133H498.396V95.832H508.396ZM503.396 79.1133H491.604V89.1133H503.396V79.1133ZM496.604 84.1133V72.3213H486.604V84.1133H496.604ZM491.604 67.3213H479.812V77.3213H491.604V67.3213ZM474.812 72.3213V143H484.812V72.3213H474.812ZM479.812 138H456.301V148H479.812V138ZM461.301 143V36.9453H451.301V143H461.301ZM456.301 41.9453H479.812V31.9453H456.301V41.9453ZM474.812 36.9453V48.7373H484.812V36.9453H474.812ZM479.812 53.7373H491.604V43.7373H479.812V53.7373ZM486.604 48.7373V60.5293H496.604V48.7373H486.604ZM491.604 65.5293H503.396V55.5293H491.604V65.5293ZM498.396 60.5293V72.3213H508.396V60.5293H498.396ZM503.396 77.3213H515.188V67.3213H503.396V77.3213ZM520.188 72.3213V60.5293H510.188V72.3213H520.188ZM515.188 65.5293H526.979V55.5293H515.188V65.5293ZM531.979 60.5293V48.7373H521.979V60.5293H531.979ZM526.979 53.7373H538.698V43.7373H526.979V53.7373ZM543.698 48.7373V36.9453H533.698V48.7373H543.698ZM538.698 41.9453H562.282V31.9453H538.698V41.9453ZM557.282 36.9453V143H567.282V36.9453H557.282ZM630.837 143V148H635.837V143H630.837ZM582.204 143H577.204V148H582.204V143ZM582.204 131.208V126.208H577.204V131.208H582.204ZM594.729 131.208V136.208H599.729V131.208H594.729ZM594.729 48.7373H599.729V43.7373H594.729V48.7373ZM582.204 48.7373H577.204V53.7373H582.204V48.7373ZM582.204 36.9453V31.9453H577.204V36.9453H582.204ZM630.837 36.9453H635.837V31.9453H630.837V36.9453ZM630.837 48.7373V53.7373H635.837V48.7373H630.837ZM618.312 48.7373V43.7373H613.312V48.7373H618.312ZM618.312 131.208H613.312V136.208H618.312V131.208ZM630.837 131.208H635.837V126.208H630.837V131.208ZM630.837 138H582.204V148H630.837V138ZM587.204 143V131.208H577.204V143H587.204ZM582.204 136.208H594.729V126.208H582.204V136.208ZM599.729 131.208V48.7373H589.729V131.208H599.729ZM594.729 43.7373H582.204V53.7373H594.729V43.7373ZM587.204 48.7373V36.9453H577.204V48.7373H587.204ZM582.204 41.9453H630.837V31.9453H582.204V41.9453ZM625.837 36.9453V48.7373H635.837V36.9453H625.837ZM630.837 43.7373H618.312V53.7373H630.837V43.7373ZM613.312 48.7373V131.208H623.312V48.7373H613.312ZM618.312 136.208H630.837V126.208H618.312V136.208ZM625.837 131.208V143H635.837V131.208H625.837ZM745.388 143V148H750.388V143H745.388ZM721.804 143H716.804V148H721.804V143ZM721.804 107.624H726.804V102.624H721.804V107.624ZM710.012 107.624H705.012V112.624H710.012V107.624ZM710.012 95.832H715.012V90.832H710.012V95.832ZM698.22 95.832H693.22V100.832H698.22V95.832ZM698.22 84.1133H703.22V79.1133H698.22V84.1133ZM686.501 84.1133H681.501V89.1133H686.501V84.1133ZM686.501 72.3213H691.501V67.3213H686.501V72.3213ZM674.709 72.3213V67.3213H669.709V72.3213H674.709ZM674.709 143V148H679.709V143H674.709ZM651.125 143H646.125V148H651.125V143ZM651.125 36.9453V31.9453H646.125V36.9453H651.125ZM686.501 36.9453H691.501V31.9453H686.501V36.9453ZM686.501 48.7373H681.501V53.7373H686.501V48.7373ZM698.22 48.7373H703.22V43.7373H698.22V48.7373ZM698.22 60.5293H693.22V65.5293H698.22V60.5293ZM710.012 60.5293H715.012V55.5293H710.012V60.5293ZM710.012 72.3213H705.012V77.3213H710.012V72.3213ZM721.804 72.3213V77.3213H726.804V72.3213H721.804ZM721.804 36.9453V31.9453H716.804V36.9453H721.804ZM745.388 36.9453H750.388V31.9453H745.388V36.9453ZM745.388 138H721.804V148H745.388V138ZM726.804 143V107.624H716.804V143H726.804ZM721.804 102.624H710.012V112.624H721.804V102.624ZM715.012 107.624V95.832H705.012V107.624H715.012ZM710.012 90.832H698.22V100.832H710.012V90.832ZM703.22 95.832V84.1133H693.22V95.832H703.22ZM698.22 79.1133H686.501V89.1133H698.22V79.1133ZM691.501 84.1133V72.3213H681.501V84.1133H691.501ZM686.501 67.3213H674.709V77.3213H686.501V67.3213ZM669.709 72.3213V143H679.709V72.3213H669.709ZM674.709 138H651.125V148H674.709V138ZM656.125 143V36.9453H646.125V143H656.125ZM651.125 41.9453H686.501V31.9453H651.125V41.9453ZM681.501 36.9453V48.7373H691.501V36.9453H681.501ZM686.501 53.7373H698.22V43.7373H686.501V53.7373ZM693.22 48.7373V60.5293H703.22V48.7373H693.22ZM698.22 65.5293H710.012V55.5293H698.22V65.5293ZM705.012 60.5293V72.3213H715.012V60.5293H705.012ZM710.012 77.3213H721.804V67.3213H710.012V77.3213ZM726.804 72.3213V36.9453H716.804V72.3213H726.804ZM721.804 41.9453H745.388V31.9453H721.804V41.9453ZM740.388 36.9453V143H750.388V36.9453H740.388ZM840.969 143V148H845.969V143H840.969ZM782.082 143H777.082V148H782.082V143ZM782.082 131.208H787.082V126.208H782.082V131.208ZM770.29 131.208H765.29V136.208H770.29V131.208ZM770.29 48.7373V43.7373H765.29V48.7373H770.29ZM782.082 48.7373V53.7373H787.082V48.7373H782.082ZM782.082 36.9453V31.9453H777.082V36.9453H782.082ZM840.969 36.9453H845.969V31.9453H840.969V36.9453ZM840.969 60.5293V65.5293H845.969V60.5293H840.969ZM793.874 60.5293V55.5293H788.874V60.5293H793.874ZM793.874 84.1133H788.874V89.1133H793.874V84.1133ZM829.177 84.1133H834.177V79.1133H829.177V84.1133ZM829.177 95.832V100.832H834.177V95.832H829.177ZM793.874 95.832V90.832H788.874V95.832H793.874ZM793.874 119.416H788.874V124.416H793.874V119.416ZM840.969 119.416H845.969V114.416H840.969V119.416ZM840.969 138H782.082V148H840.969V138ZM787.082 143V131.208H777.082V143H787.082ZM782.082 126.208H770.29V136.208H782.082V126.208ZM775.29 131.208V48.7373H765.29V131.208H775.29ZM770.29 53.7373H782.082V43.7373H770.29V53.7373ZM787.082 48.7373V36.9453H777.082V48.7373H787.082ZM782.082 41.9453H840.969V31.9453H782.082V41.9453ZM835.969 36.9453V60.5293H845.969V36.9453H835.969ZM840.969 55.5293H793.874V65.5293H840.969V55.5293ZM788.874 60.5293V84.1133H798.874V60.5293H788.874ZM793.874 89.1133H829.177V79.1133H793.874V89.1133ZM824.177 84.1133V95.832H834.177V84.1133H824.177ZM829.177 90.832H793.874V100.832H829.177V90.832ZM788.874 95.832V119.416H798.874V95.832H788.874ZM793.874 124.416H840.969V114.416H793.874V124.416ZM835.969 119.416V143H845.969V119.416H835.969ZM918.752 84.1133V89.1133H923.752V84.1133H918.752ZM918.752 60.5293H923.752V55.5293H918.752V60.5293ZM883.449 60.5293V55.5293H878.449V60.5293H883.449ZM883.449 84.1133H878.449V89.1133H883.449V84.1133ZM942.336 143V148H947.336V143H942.336ZM918.752 143H913.752V148H918.752V143ZM918.752 131.208H923.752V126.208H918.752V131.208ZM907.546 131.208H902.546V136.208H907.546V131.208ZM907.546 119.416H912.546V114.416H907.546V119.416ZM895.754 119.416H890.754V124.416H895.754V119.416ZM895.754 107.624H900.754V102.624H895.754V107.624ZM883.449 107.624V102.624H878.449V107.624H883.449ZM883.449 143V148H888.449V143H883.449ZM859.865 143H854.865V148H859.865V143ZM859.865 36.9453V31.9453H854.865V36.9453H859.865ZM930.544 36.9453H935.544V31.9453H930.544V36.9453ZM930.544 48.7373H925.544V53.7373H930.544V48.7373ZM942.336 48.7373H947.336V43.7373H942.336V48.7373ZM942.336 84.1133V89.1133H947.336V84.1133H942.336ZM930.544 84.1133V79.1133H925.544V84.1133H930.544ZM930.544 95.832V100.832H935.544V95.832H930.544ZM918.752 95.832V90.832H913.752V95.832H918.752ZM918.752 107.624H913.752V112.624H918.752V107.624ZM930.544 107.624H935.544V102.624H930.544V107.624ZM930.544 119.416H925.544V124.416H930.544V119.416ZM942.336 119.416H947.336V114.416H942.336V119.416ZM923.752 84.1133V60.5293H913.752V84.1133H923.752ZM918.752 55.5293H883.449V65.5293H918.752V55.5293ZM878.449 60.5293V84.1133H888.449V60.5293H878.449ZM883.449 89.1133H918.752V79.1133H883.449V89.1133ZM942.336 138H918.752V148H942.336V138ZM923.752 143V131.208H913.752V143H923.752ZM918.752 126.208H907.546V136.208H918.752V126.208ZM912.546 131.208V119.416H902.546V131.208H912.546ZM907.546 114.416H895.754V124.416H907.546V114.416ZM900.754 119.416V107.624H890.754V119.416H900.754ZM895.754 102.624H883.449V112.624H895.754V102.624ZM878.449 107.624V143H888.449V107.624H878.449ZM883.449 138H859.865V148H883.449V138ZM864.865 143V36.9453H854.865V143H864.865ZM859.865 41.9453H930.544V31.9453H859.865V41.9453ZM925.544 36.9453V48.7373H935.544V36.9453H925.544ZM930.544 53.7373H942.336V43.7373H930.544V53.7373ZM937.336 48.7373V84.1133H947.336V48.7373H937.336ZM942.336 79.1133H930.544V89.1133H942.336V79.1133ZM925.544 84.1133V95.832H935.544V84.1133H925.544ZM930.544 90.832H918.752V100.832H930.544V90.832ZM913.752 95.832V107.624H923.752V95.832H913.752ZM918.752 112.624H930.544V102.624H918.752V112.624ZM925.544 107.624V119.416H935.544V107.624H925.544ZM930.544 124.416H942.336V114.416H930.544V124.416ZM937.336 119.416V143H947.336V119.416H937.336ZM1035.43 143V148H1040.43V143H1035.43ZM976.54 143H971.54V148H976.54V143ZM976.54 131.208H981.54V126.208H976.54V131.208ZM964.748 131.208H959.748V136.208H964.748V131.208ZM964.748 107.624V102.624H959.748V107.624H964.748ZM988.332 107.624H993.332V102.624H988.332V107.624ZM988.332 119.416H983.332V124.416H988.332V119.416ZM1023.63 119.416V124.416H1028.63V119.416H1023.63ZM1023.63 107.624H1028.63V102.624H1023.63V107.624ZM1000.05 107.624H995.051V112.624H1000.05V107.624ZM1000.05 95.832H1005.05V90.832H1000.05V95.832ZM976.54 95.832H971.54V100.832H976.54V95.832ZM976.54 84.1133H981.54V79.1133H976.54V84.1133ZM964.748 84.1133H959.748V89.1133H964.748V84.1133ZM964.748 48.7373V43.7373H959.748V48.7373H964.748ZM976.54 48.7373V53.7373H981.54V48.7373H976.54ZM976.54 36.9453V31.9453H971.54V36.9453H976.54ZM1035.43 36.9453H1040.43V31.9453H1035.43V36.9453ZM1035.43 48.7373H1030.43V53.7373H1035.43V48.7373ZM1047.22 48.7373H1052.22V43.7373H1047.22V48.7373ZM1047.22 72.3213V77.3213H1052.22V72.3213H1047.22ZM1023.63 72.3213H1018.63V77.3213H1023.63V72.3213ZM1023.63 60.5293H1028.63V55.5293H1023.63V60.5293ZM988.332 60.5293V55.5293H983.332V60.5293H988.332ZM988.332 72.3213H983.332V77.3213H988.332V72.3213ZM1011.84 72.3213H1016.84V67.3213H1011.84V72.3213ZM1011.84 84.1133H1006.84V89.1133H1011.84V84.1133ZM1035.43 84.1133H1040.43V79.1133H1035.43V84.1133ZM1035.43 95.832H1030.43V100.832H1035.43V95.832ZM1047.22 95.832H1052.22V90.832H1047.22V95.832ZM1047.22 131.208V136.208H1052.22V131.208H1047.22ZM1035.43 131.208V126.208H1030.43V131.208H1035.43ZM1035.43 138H976.54V148H1035.43V138ZM981.54 143V131.208H971.54V143H981.54ZM976.54 126.208H964.748V136.208H976.54V126.208ZM969.748 131.208V107.624H959.748V131.208H969.748ZM964.748 112.624H988.332V102.624H964.748V112.624ZM983.332 107.624V119.416H993.332V107.624H983.332ZM988.332 124.416H1023.63V114.416H988.332V124.416ZM1028.63 119.416V107.624H1018.63V119.416H1028.63ZM1023.63 102.624H1000.05V112.624H1023.63V102.624ZM1005.05 107.624V95.832H995.051V107.624H1005.05ZM1000.05 90.832H976.54V100.832H1000.05V90.832ZM981.54 95.832V84.1133H971.54V95.832H981.54ZM976.54 79.1133H964.748V89.1133H976.54V79.1133ZM969.748 84.1133V48.7373H959.748V84.1133H969.748ZM964.748 53.7373H976.54V43.7373H964.748V53.7373ZM981.54 48.7373V36.9453H971.54V48.7373H981.54ZM976.54 41.9453H1035.43V31.9453H976.54V41.9453ZM1030.43 36.9453V48.7373H1040.43V36.9453H1030.43ZM1035.43 53.7373H1047.22V43.7373H1035.43V53.7373ZM1042.22 48.7373V72.3213H1052.22V48.7373H1042.22ZM1047.22 67.3213H1023.63V77.3213H1047.22V67.3213ZM1028.63 72.3213V60.5293H1018.63V72.3213H1028.63ZM1023.63 55.5293H988.332V65.5293H1023.63V55.5293ZM983.332 60.5293V72.3213H993.332V60.5293H983.332ZM988.332 77.3213H1011.84V67.3213H988.332V77.3213ZM1006.84 72.3213V84.1133H1016.84V72.3213H1006.84ZM1011.84 89.1133H1035.43V79.1133H1011.84V89.1133ZM1030.43 84.1133V95.832H1040.43V84.1133H1030.43ZM1035.43 100.832H1047.22V90.832H1035.43V100.832ZM1042.22 95.832V131.208H1052.22V95.832H1042.22ZM1047.22 126.208H1035.43V136.208H1047.22V126.208ZM1030.43 131.208V143H1040.43V131.208H1030.43Z"
            fill="white" mask="url(#path-1-outside-1_181_2009)" />
    </g>
    <defs>
        <filter id="filter0_d_181_2009" x="0.774502" y="0.657314" width="1082.73" height="178.631"
            filterUnits="userSpaceOnUse" color-interpolation-filters="sRGB">
            <feFlood flood-opacity="0" result="BackgroundImageFix" />
            <feColorMatrix in="SourceAlpha" type="matrix" values="0 0 0 0 0 0 0 0 0 0 0 0 0 0 0 0 0 0 127 0"
                result="hardAlpha" />
            <feOffset />
            <feGaussianBlur stdDeviation="18.144" />
            <feColorMatrix type="matrix" values="0 0 0 0 0.909804 0 0 0 0 0.254902 0 0 0 0 0.258824 0 0 0 1 0" />
            <feBlend mode="normal" in2="BackgroundImageFix" result="effect1_dropShadow_181_2009" />
            <feBlend mode="normal" in="SourceGraphic" in2="effect1_dropShadow_181_2009" result="shape" />
        </filter>
        <linearGradient id="paint0_linear_181_2009" x1="540.5" y1="-19" x2="540.5" y2="199"
            gradientUnits="userSpaceOnUse">
            <stop stop-color="#E84142" />
            <stop offset="1" stop-color="#FFE9E9" stop-opacity="0" />
        </linearGradient>
    </defs>
</svg>